<svg width="72" height="72" viewBox="0 0 72 72" fill="none" xmlns="http://www.w3.org/2000/svg">
<rect x="24.7617" y="15.5859" width="5.27657" height="5.27657" fill="#606060" fill-opacity="0.57"/>
<rect x="24.7617" y="38.25" width="5.27657" height="5.27657" fill="#606060" fill-opacity="0.57"/>
<rect x="19.084" y="21.0801" width="5.27657" height="5.27657" fill="#606060" fill-opacity="0.57"/>
<rect x="52.2852" y="55.1641" width="5.27657" height="5.27657" transform="rotate(180 52.2852 55.1641)" fill="#606060" fill-opacity="0.57"/>
<rect x="19.084" y="26.7656" width="5.27657" height="5.27657" fill="#606060" fill-opacity="0.57"/>
<rect x="47.0137" y="49.2363" width="5.27657" height="5.27657" transform="rotate(180 47.0137 49.2363)" fill="#606060" fill-opacity="0.57"/>
<rect x="19.084" y="32.4453" width="5.27657" height="5.27657" fill="#606060" fill-opacity="0.57"/>
<rect x="30.4434" y="15.5859" width="5.27657" height="5.27657" fill="#606060" fill-opacity="0.57"/>
<rect x="30.4434" y="38.25" width="5.27657" height="5.27657" fill="#606060" fill-opacity="0.57"/>
<rect x="36.127" y="15.5859" width="5.27657" height="5.27657" fill="#606060" fill-opacity="0.57"/>
<rect x="36.127" y="38.25" width="5.27657" height="5.27657" fill="#606060" fill-opacity="0.57"/>
<rect x="41.7383" y="21.1211" width="5.27657" height="5.27657" fill="#606060" fill-opacity="0.57"/>
<rect x="41.7383" y="26.832" width="5.27657" height="5.27657" fill="#606060" fill-opacity="0.57"/>
<rect x="41.7383" y="32.541" width="5.27657" height="5.27657" fill="#606060" fill-opacity="0.57"/>
</svg>
