<svg width="72" height="72" viewBox="0 0 72 72" fill="none" xmlns="http://www.w3.org/2000/svg">
<rect x="14.9922" y="32.8281" width="5.27686" height="5.27686" fill="#606060" fill-opacity="0.57"/>
<rect x="14.9922" y="38.6094" width="5.27686" height="5.27686" fill="#606060" fill-opacity="0.57"/>
<rect x="14.9922" y="44.6777" width="5.27686" height="5.27686" fill="#606060" fill-opacity="0.57"/>
<rect x="21.0625" y="47.2793" width="5.27686" height="5.27686" fill="#606060" fill-opacity="0.57"/>
<rect x="27.1309" y="49.8809" width="5.27686" height="5.27686" fill="#606060" fill-opacity="0.57"/>
<rect x="33.1992" y="52.1934" width="5.27686" height="5.27686" fill="#606060" fill-opacity="0.57"/>
<rect x="51.4062" y="43.5215" width="5.27686" height="5.27686" fill="#606060" fill-opacity="0.57"/>
<rect x="39.2676" y="49.8809" width="5.27686" height="5.27686" fill="#606060" fill-opacity="0.57"/>
<rect x="39.2676" y="26.1816" width="5.27686" height="5.27686" fill="#606060" fill-opacity="0.57"/>
<rect x="45.3379" y="46.4121" width="5.27686" height="5.27686" fill="#606060" fill-opacity="0.57"/>
<rect x="45.3379" y="22.7148" width="5.27686" height="5.27686" fill="#606060" fill-opacity="0.57"/>
<rect x="14.9922" y="27.0488" width="5.27686" height="5.27686" fill="#606060" fill-opacity="0.57"/>
<rect x="14.9922" y="21.2695" width="5.27686" height="5.27686" fill="#606060" fill-opacity="0.57"/>
<rect x="21.0625" y="17.8027" width="5.27686" height="5.27686" fill="#606060" fill-opacity="0.57"/>
<rect x="27.1309" y="16.0684" width="5.27686" height="5.27686" fill="#606060" fill-opacity="0.57"/>
<rect x="33.1992" y="12.5996" width="5.27686" height="5.27686" fill="#606060" fill-opacity="0.57"/>
<rect x="39.2676" y="14.334" width="5.27686" height="5.27686" fill="#606060" fill-opacity="0.57"/>
<rect x="45.3379" y="16.6465" width="5.27686" height="5.27686" fill="#606060" fill-opacity="0.57"/>
<rect x="21.0625" y="23.8711" width="5.27686" height="5.27686" fill="#606060" fill-opacity="0.57"/>
<rect x="27.1309" y="27.0488" width="5.27686" height="5.27686" fill="#606060" fill-opacity="0.57"/>
<rect x="33.1992" y="29.0723" width="5.27686" height="5.27686" fill="#606060" fill-opacity="0.57"/>
<rect x="51.4062" y="20.4023" width="5.27686" height="5.27686" fill="#606060" fill-opacity="0.57"/>
<rect x="33.1992" y="34.8516" width="5.27686" height="5.27686" fill="#606060" fill-opacity="0.57"/>
<rect x="51.4062" y="26.1816" width="5.27686" height="5.27686" fill="#606060" fill-opacity="0.57"/>
<rect x="33.1992" y="40.6309" width="5.27686" height="5.27686" fill="#606060" fill-opacity="0.57"/>
<rect x="51.4062" y="31.9609" width="5.27686" height="5.27686" fill="#606060" fill-opacity="0.57"/>
<rect x="33.1992" y="46.4121" width="5.27686" height="5.27686" fill="#606060" fill-opacity="0.57"/>
<rect x="51.4062" y="37.7422" width="5.27686" height="5.27686" fill="#606060" fill-opacity="0.57"/>
</svg>
