<svg width="72" height="72" viewBox="0 0 72 72" fill="none" xmlns="http://www.w3.org/2000/svg">
<rect x="23.666" y="17.125" width="5.27686" height="5.27686" fill="#606060" fill-opacity="0.57"/>
<rect x="47.4922" y="53.125" width="5.27686" height="5.27686" transform="rotate(180 47.4922 53.125)" fill="#606060" fill-opacity="0.57"/>
<rect x="17.9863" y="22.3984" width="5.27686" height="5.27686" fill="#606060" fill-opacity="0.57"/>
<rect x="53.1738" y="47.8496" width="5.27686" height="5.27686" transform="rotate(180 53.1738 47.8496)" fill="#606060" fill-opacity="0.57"/>
<rect x="17.9863" y="28.084" width="5.27686" height="5.27686" fill="#606060" fill-opacity="0.57"/>
<rect x="53.1738" y="42.166" width="5.27686" height="5.27686" transform="rotate(180 53.1738 42.166)" fill="#606060" fill-opacity="0.57"/>
<rect x="17.9863" y="33.7656" width="5.27686" height="5.27686" fill="#606060" fill-opacity="0.57"/>
<rect x="53.1738" y="36.4844" width="5.27686" height="5.27686" transform="rotate(180 53.1738 36.4844)" fill="#606060" fill-opacity="0.57"/>
<rect x="29.3477" y="17.125" width="5.27686" height="5.27686" fill="#606060" fill-opacity="0.57"/>
<rect x="28.0703" y="27.6152" width="5.27686" height="5.27686" fill="#606060" fill-opacity="0.57"/>
<rect x="38.2188" y="27.6152" width="5.27686" height="5.27686" fill="#606060" fill-opacity="0.57"/>
<rect x="28.0703" y="33.2988" width="5.27686" height="5.27686" fill="#606060" fill-opacity="0.57"/>
<rect x="38.2188" y="33.2988" width="5.27686" height="5.27686" fill="#606060" fill-opacity="0.57"/>
<rect x="41.8086" y="53.125" width="5.27686" height="5.27686" transform="rotate(180 41.8086 53.125)" fill="#606060" fill-opacity="0.57"/>
<rect x="35.0312" y="17.125" width="5.27686" height="5.27686" fill="#606060" fill-opacity="0.57"/>
<rect x="40.668" y="17.125" width="5.27686" height="5.27686" fill="#606060" fill-opacity="0.57"/>
<rect x="36.127" y="53.125" width="5.27686" height="5.27686" transform="rotate(180 36.127 53.125)" fill="#606060" fill-opacity="0.57"/>
<rect x="30.3379" y="53.125" width="5.27686" height="5.27686" transform="rotate(180 30.3379 53.125)" fill="#606060" fill-opacity="0.57"/>
</svg>
