<svg width="72" height="72" viewBox="0 0 72 72" fill="none" xmlns="http://www.w3.org/2000/svg">
<g filter="url(#filter0_d_580_611)">
<path d="M2.03906 35.1262C2.03906 16.4773 17.157 1.35938 35.8059 1.35938V1.35938C54.4548 1.35938 69.5727 16.4773 69.5727 35.1262V35.1262C69.5727 53.7751 54.4548 68.893 35.8059 68.893V68.893C17.157 68.893 2.03906 53.7751 2.03906 35.1262V35.1262Z" fill="#F4F4F4"/>
</g>
<rect x="14.9922" y="32.8281" width="5.27686" height="5.27686" fill="#606060" fill-opacity="0.57"/>
<rect x="14.9922" y="38.6094" width="5.27686" height="5.27686" fill="#606060" fill-opacity="0.57"/>
<rect x="14.9922" y="44.6777" width="5.27686" height="5.27686" fill="#606060" fill-opacity="0.57"/>
<rect x="21.0625" y="47.2793" width="5.27686" height="5.27686" fill="#606060" fill-opacity="0.57"/>
<rect x="27.1309" y="49.8809" width="5.27686" height="5.27686" fill="#606060" fill-opacity="0.57"/>
<rect x="33.1992" y="52.1934" width="5.27686" height="5.27686" fill="#606060" fill-opacity="0.57"/>
<rect x="51.4062" y="43.5215" width="5.27686" height="5.27686" fill="#606060" fill-opacity="0.57"/>
<rect x="39.2676" y="49.8809" width="5.27686" height="5.27686" fill="#606060" fill-opacity="0.57"/>
<rect x="39.2676" y="26.1816" width="5.27686" height="5.27686" fill="#606060" fill-opacity="0.57"/>
<rect x="45.3379" y="46.4121" width="5.27686" height="5.27686" fill="#606060" fill-opacity="0.57"/>
<rect x="45.3379" y="22.7148" width="5.27686" height="5.27686" fill="#606060" fill-opacity="0.57"/>
<rect x="14.9922" y="27.0488" width="5.27686" height="5.27686" fill="#606060" fill-opacity="0.57"/>
<rect x="14.9922" y="21.2695" width="5.27686" height="5.27686" fill="#606060" fill-opacity="0.57"/>
<rect x="21.0625" y="17.8027" width="5.27686" height="5.27686" fill="#606060" fill-opacity="0.57"/>
<rect x="27.1309" y="16.0684" width="5.27686" height="5.27686" fill="#606060" fill-opacity="0.57"/>
<rect x="33.1992" y="12.5996" width="5.27686" height="5.27686" fill="#606060" fill-opacity="0.57"/>
<rect x="39.2676" y="14.334" width="5.27686" height="5.27686" fill="#606060" fill-opacity="0.57"/>
<rect x="45.3379" y="16.6465" width="5.27686" height="5.27686" fill="#606060" fill-opacity="0.57"/>
<rect x="21.0625" y="23.8711" width="5.27686" height="5.27686" fill="#606060" fill-opacity="0.57"/>
<rect x="27.1309" y="27.0488" width="5.27686" height="5.27686" fill="#606060" fill-opacity="0.57"/>
<rect x="33.1992" y="29.0723" width="5.27686" height="5.27686" fill="#606060" fill-opacity="0.57"/>
<rect x="51.4062" y="20.4023" width="5.27686" height="5.27686" fill="#606060" fill-opacity="0.57"/>
<rect x="33.1992" y="34.8516" width="5.27686" height="5.27686" fill="#606060" fill-opacity="0.57"/>
<rect x="51.4062" y="26.1816" width="5.27686" height="5.27686" fill="#606060" fill-opacity="0.57"/>
<rect x="33.1992" y="40.6309" width="5.27686" height="5.27686" fill="#606060" fill-opacity="0.57"/>
<rect x="51.4062" y="31.9609" width="5.27686" height="5.27686" fill="#606060" fill-opacity="0.57"/>
<rect x="33.1992" y="46.4121" width="5.27686" height="5.27686" fill="#606060" fill-opacity="0.57"/>
<rect x="51.4062" y="37.7422" width="5.27686" height="5.27686" fill="#606060" fill-opacity="0.57"/>
<defs>
<filter id="filter0_d_580_611" x="-0.0009377" y="-0.000625193" width="71.6132" height="71.6132" filterUnits="userSpaceOnUse" color-interpolation-filters="sRGB">
<feFlood flood-opacity="0" result="BackgroundImageFix"/>
<feColorMatrix in="SourceAlpha" type="matrix" values="0 0 0 0 0 0 0 0 0 0 0 0 0 0 0 0 0 0 127 0" result="hardAlpha"/>
<feOffset dy="0.68"/>
<feGaussianBlur stdDeviation="1.02"/>
<feComposite in2="hardAlpha" operator="out"/>
<feColorMatrix type="matrix" values="0 0 0 0 0 0 0 0 0 0 0 0 0 0 0 0 0 0 0.19 0"/>
<feBlend mode="normal" in2="BackgroundImageFix" result="effect1_dropShadow_580_611"/>
<feBlend mode="normal" in="SourceGraphic" in2="effect1_dropShadow_580_611" result="shape"/>
</filter>
</defs>
</svg>
