<svg width="72" height="72" viewBox="0 0 72 72" fill="none" xmlns="http://www.w3.org/2000/svg">
<rect x="19.1035" y="18.2812" width="5.27686" height="5.27686" fill="#606060" fill-opacity="0.57"/>
<rect x="19.1035" y="23.9609" width="5.27686" height="5.27686" fill="#606060" fill-opacity="0.57"/>
<rect x="20.7285" y="29.6465" width="5.27686" height="5.27686" fill="#606060" fill-opacity="0.57"/>
<rect x="32.0918" y="29.6465" width="5.27686" height="5.27686" fill="#606060" fill-opacity="0.57"/>
<rect x="26.4121" y="23.9609" width="5.27686" height="5.27686" fill="#606060" fill-opacity="0.57"/>
<rect x="45.084" y="23.9609" width="5.27686" height="5.27686" fill="#606060" fill-opacity="0.57"/>
<rect x="26.4121" y="29.6465" width="5.27686" height="5.27686" fill="#606060" fill-opacity="0.57"/>
<rect x="45.084" y="29.6465" width="5.27686" height="5.27686" fill="#606060" fill-opacity="0.57"/>
<rect x="26.4121" y="35.3301" width="5.27686" height="5.27686" fill="#606060" fill-opacity="0.57"/>
<rect x="45.084" y="35.3301" width="5.27686" height="5.27686" fill="#606060" fill-opacity="0.57"/>
<rect x="26.4121" y="41.0098" width="5.27686" height="5.27686" fill="#606060" fill-opacity="0.57"/>
<rect x="45.084" y="41.0098" width="5.27686" height="5.27686" fill="#606060" fill-opacity="0.57"/>
<rect x="26.4121" y="46.6934" width="5.27686" height="5.27686" fill="#606060" fill-opacity="0.57"/>
<rect x="45.084" y="46.6934" width="5.27686" height="5.27686" fill="#606060" fill-opacity="0.57"/>
<rect x="33.7188" y="23.9609" width="5.27686" height="5.27686" fill="#606060" fill-opacity="0.57"/>
<rect x="26.4121" y="18.2812" width="5.27686" height="5.27686" fill="#606060" fill-opacity="0.57"/>
<rect x="45.084" y="18.2812" width="5.27686" height="5.27686" fill="#606060" fill-opacity="0.57"/>
<rect x="33.7188" y="18.2812" width="5.27686" height="5.27686" fill="#606060" fill-opacity="0.57"/>
</svg>
