<svg width="72" height="72" viewBox="0 0 72 72" fill="none" xmlns="http://www.w3.org/2000/svg">
<g filter="url(#filter0_d_664_245)">
<path d="M2.03906 35.1244C2.03906 16.4765 17.1562 1.35938 35.8041 1.35938V1.35938C54.452 1.35938 69.5691 16.4765 69.5691 35.1244V35.1244C69.5691 53.7723 54.452 68.8894 35.8041 68.8894V68.8894C17.1562 68.8894 2.03906 53.7723 2.03906 35.1244V35.1244Z" fill="#F4F4F4"/>
</g>
<rect x="24.7617" y="15.5859" width="5.27657" height="5.27657" fill="#606060" fill-opacity="0.57"/>
<rect x="24.7617" y="38.25" width="5.27657" height="5.27657" fill="#606060" fill-opacity="0.57"/>
<rect x="19.084" y="21.0801" width="5.27657" height="5.27657" fill="#606060" fill-opacity="0.57"/>
<rect x="52.2852" y="55.1641" width="5.27657" height="5.27657" transform="rotate(180 52.2852 55.1641)" fill="#606060" fill-opacity="0.57"/>
<rect x="19.084" y="26.7656" width="5.27657" height="5.27657" fill="#606060" fill-opacity="0.57"/>
<rect x="47.0137" y="49.2363" width="5.27657" height="5.27657" transform="rotate(180 47.0137 49.2363)" fill="#606060" fill-opacity="0.57"/>
<rect x="19.084" y="32.4453" width="5.27657" height="5.27657" fill="#606060" fill-opacity="0.57"/>
<rect x="30.4434" y="15.5859" width="5.27657" height="5.27657" fill="#606060" fill-opacity="0.57"/>
<rect x="30.4434" y="38.25" width="5.27657" height="5.27657" fill="#606060" fill-opacity="0.57"/>
<rect x="36.127" y="15.5859" width="5.27657" height="5.27657" fill="#606060" fill-opacity="0.57"/>
<rect x="36.127" y="38.25" width="5.27657" height="5.27657" fill="#606060" fill-opacity="0.57"/>
<rect x="41.7383" y="21.1211" width="5.27657" height="5.27657" fill="#606060" fill-opacity="0.57"/>
<rect x="41.7383" y="26.832" width="5.27657" height="5.27657" fill="#606060" fill-opacity="0.57"/>
<rect x="41.7383" y="32.541" width="5.27657" height="5.27657" fill="#606060" fill-opacity="0.57"/>
<defs>
<filter id="filter0_d_664_245" x="-0.000828505" y="-0.000552475" width="71.6091" height="71.6091" filterUnits="userSpaceOnUse" color-interpolation-filters="sRGB">
<feFlood flood-opacity="0" result="BackgroundImageFix"/>
<feColorMatrix in="SourceAlpha" type="matrix" values="0 0 0 0 0 0 0 0 0 0 0 0 0 0 0 0 0 0 127 0" result="hardAlpha"/>
<feOffset dy="0.679964"/>
<feGaussianBlur stdDeviation="1.01995"/>
<feComposite in2="hardAlpha" operator="out"/>
<feColorMatrix type="matrix" values="0 0 0 0 0 0 0 0 0 0 0 0 0 0 0 0 0 0 0.19 0"/>
<feBlend mode="normal" in2="BackgroundImageFix" result="effect1_dropShadow_664_245"/>
<feBlend mode="normal" in="SourceGraphic" in2="effect1_dropShadow_664_245" result="shape"/>
</filter>
</defs>
</svg>
