<svg width="35" height="35" viewBox="0 0 35 35" fill="none" xmlns="http://www.w3.org/2000/svg">
<path d="M0 7.20312H6.08634V13.2895H0V7.20312Z" fill="#A09F9F"/>
<path d="M0 14.4004H6.08634V20.4867H0V14.4004Z" fill="#A09F9F"/>
<path d="M7.19922 7.20312H13.2856V13.2895H7.19922V7.20312Z" fill="#A09F9F"/>
<path d="M14.3984 7.20312H20.4848V13.2895H14.3984V7.20312Z" fill="#A09F9F"/>
<path d="M7.19922 0.00195312H13.2856V6.08829H7.19922V0.00195312Z" fill="#A09F9F"/>
<path d="M7.19922 14.4004H13.2856V20.4867H7.19922V14.4004Z" fill="#A09F9F"/>
<path d="M7.19922 21.6016H13.2856V27.6879H7.19922V21.6016Z" fill="#A09F9F"/>
<path d="M14.3984 28.8008H20.4848V34.8871H14.3984V28.8008Z" fill="#A09F9F"/>
<path d="M14.3984 21.6016H20.4848V27.6879H14.3984V21.6016Z" fill="#A09F9F"/>
<path d="M14.3984 14.4004H20.4848V20.4867H14.3984V14.4004Z" fill="#A09F9F"/>
<path d="M21.5996 7.20117H27.6859V13.2875H21.5996V7.20117Z" fill="#A09F9F"/>
<path d="M21.5996 0H27.6859V6.08634H21.5996V0Z" fill="#A09F9F"/>
<path d="M21.5996 14.4004H27.6859V20.4867H21.5996V14.4004Z" fill="#A09F9F"/>
<path d="M28.7988 14.4004H34.8852V20.4867H28.7988V14.4004Z" fill="#A09F9F"/>
<path d="M21.5996 21.6016H27.6859V27.6879H21.5996V21.6016Z" fill="#A09F9F"/>
<path d="M28.7988 7.20117H34.8852V13.2875H28.7988V7.20117Z" fill="#A09F9F"/>
</svg>
