<svg width="16" height="16" viewBox="0 0 16 16" fill="none" xmlns="http://www.w3.org/2000/svg">
<path d="M12.9501 6.435C12.9501 7.85812 12.486 9.18844 11.7126 10.2403L15.6107 14.1694C16.0129 14.5406 16.0129 15.1903 15.6107 15.5616C15.2395 15.9638 14.5898 15.9638 14.2185 15.5616L10.2895 11.6325C9.23758 12.4369 7.90727 12.87 6.51508 12.87C2.95727 12.87 0.0800781 9.99281 0.0800781 6.435C0.0800781 2.90812 2.95727 0 6.51508 0C10.042 0 12.9501 2.90812 12.9501 6.435ZM6.51508 10.89C8.95914 10.89 10.9701 8.91 10.9701 6.435C10.9701 3.99094 8.95914 1.98 6.51508 1.98C4.04008 1.98 2.06008 3.99094 2.06008 6.435C2.06008 8.91 4.04008 10.89 6.51508 10.89Z" fill="#052333"/>
</svg>
