<svg width="31" height="39" viewBox="0 0 31 39" fill="none" xmlns="http://www.w3.org/2000/svg">
<path d="M26.7586 7.45806C26.7383 7.25588 26.5756 7.16603 26.4536 7.16603C26.3316 7.16603 23.6679 6.94139 23.6679 6.94139C23.6679 6.94139 21.8176 4.89717 21.5939 4.69499C21.3906 4.47035 21.0043 4.53774 20.8416 4.58267C20.8213 4.58267 20.4349 4.71745 19.8046 4.94209C19.1743 2.9428 18.0966 1.12322 16.165 1.12322H15.982C15.4533 0.359439 14.762 1.52588e-05 14.1926 1.52588e-05C9.71931 1.52588e-05 7.56398 6.17761 6.89298 9.32257C5.14432 9.9291 3.90399 10.3335 3.76166 10.4008C2.78566 10.7378 2.76533 10.7603 2.64333 11.7711C2.54166 12.5349 0 34.2576 0 34.2576L19.7843 38.3461L30.5203 35.7852C30.5406 35.7402 26.7789 7.66023 26.7586 7.45806ZM18.7066 5.25659C18.2186 5.41384 17.629 5.61601 17.0393 5.84065V5.4363C17.0393 4.22324 16.897 3.23483 16.6326 2.44859C17.6493 2.58337 18.2796 3.81889 18.7066 5.25659ZM15.3923 2.69569C15.6566 3.45947 15.8396 4.53774 15.8396 6.02036V6.245C14.7416 6.62689 13.5826 7.00878 12.383 7.43559C13.054 4.60513 14.335 3.21237 15.3923 2.69569ZM14.091 1.30292C14.2943 1.30292 14.4976 1.39278 14.6603 1.52756C13.2166 2.26888 11.6916 4.13339 11.0613 7.90734C10.1056 8.2443 9.19064 8.53633 8.31631 8.85083C9.04831 5.97544 10.8783 1.30292 14.091 1.30292Z" fill="#95BF47"/>
<path d="M26.453 7.12241C26.331 7.12241 23.6674 6.89777 23.6674 6.89777C23.6674 6.89777 21.8171 4.85355 21.5934 4.65137C21.5121 4.56152 21.4104 4.51659 21.3291 4.51659L19.8447 38.3474L30.5807 35.7865C30.5807 35.7865 26.819 7.66155 26.7987 7.45937C26.7174 7.2572 26.575 7.16734 26.453 7.12241Z" fill="#5E8E3E"/>
<path d="M16.1654 13.6807L14.8641 18.0162C14.8641 18.0162 13.6847 17.3198 12.2818 17.3198C10.1874 17.3198 10.0858 18.78 10.0858 19.1394C10.0858 21.1163 14.7624 21.88 14.7624 26.5301C14.7624 30.1917 12.6681 32.5504 9.84176 32.5504C6.42577 32.5504 4.71777 30.2142 4.71777 30.2142L5.63277 26.8895C5.63277 26.8895 7.4221 28.5968 8.92676 28.5968C9.92309 28.5968 10.3298 27.7431 10.3298 27.1142C10.3298 24.5308 6.5071 24.4185 6.5071 20.1503C6.5071 16.5785 8.8251 13.1191 13.5221 13.1191C15.2707 13.0966 16.1654 13.6807 16.1654 13.6807Z" fill="white"/>
</svg>
