<svg width="29" height="33" viewBox="0 0 29 33" fill="none" xmlns="http://www.w3.org/2000/svg">
<g clip-path="url(#clip0_369_325)">
<path d="M19.7735 3.91743C19.7735 3.91743 19.4029 4.02331 18.7941 4.20861C18.6882 3.86449 18.5294 3.46743 18.3176 3.0439C17.6294 1.72037 16.5971 1.00567 15.3794 1.00567C15.3 1.00567 15.2206 1.00567 15.1147 1.03214C15.0882 0.979195 15.0353 0.952724 15.0088 0.899783C14.4794 0.31743 13.7912 0.0527243 12.9706 0.0791949C11.3824 0.132136 9.79412 1.27037 8.52353 3.30861C7.62353 4.73802 6.93529 6.53802 6.75 7.94096C4.92353 8.49684 3.65294 8.8939 3.62647 8.92037C2.7 9.21155 2.67353 9.23802 2.56765 10.1115C2.40882 10.7733 0 29.4351 0 29.4351L20.0118 32.9027V3.86449C19.9059 3.89096 19.8265 3.89096 19.7735 3.91743ZM15.1412 5.34684C14.0824 5.66449 12.9176 6.03508 11.7794 6.37919C12.0971 5.13508 12.7324 3.89096 13.4735 3.07037C13.7647 2.77919 14.1618 2.43508 14.6118 2.22331C15.0618 3.17625 15.1676 4.47331 15.1412 5.34684ZM12.9971 1.13802C13.3676 1.13802 13.6853 1.21743 13.95 1.37625C13.5265 1.58802 13.1029 1.93214 12.7059 2.32919C11.7 3.41449 10.9324 5.10861 10.6147 6.72331C9.66176 7.01449 8.70882 7.30566 7.83529 7.57037C8.39118 5.05567 10.5353 1.21743 12.9971 1.13802ZM9.9 15.6968C10.0059 17.391 14.4794 17.7615 14.7441 21.7586C14.9294 24.9086 13.0765 27.0527 10.4029 27.2115C7.17353 27.4233 5.4 25.5174 5.4 25.5174L6.08823 22.6057C6.08823 22.6057 7.86176 23.9557 9.29118 23.8498C10.2176 23.7968 10.5618 23.0292 10.5353 22.4998C10.4029 20.2763 6.75 20.4086 6.51176 16.7557C6.3 13.7115 8.31176 10.6145 12.7588 10.3233C14.4794 10.2174 15.3529 10.641 15.3529 10.641L14.3471 14.4527C14.3471 14.4527 13.2088 13.9233 11.8588 14.0292C9.9 14.1615 9.87353 15.4057 9.9 15.6968ZM16.2 5.02919C16.2 4.23508 16.0941 3.09684 15.7235 2.1439C16.9412 2.38214 17.5235 3.73214 17.7882 4.55272C17.3118 4.68508 16.7824 4.8439 16.2 5.02919Z" fill="white"/>
<path d="M20.6738 32.7968L28.9856 30.7321C28.9856 30.7321 25.4121 6.56448 25.3856 6.40566C25.3591 6.24684 25.2268 6.14095 25.0944 6.14095C24.9621 6.14095 22.6327 6.08801 22.6327 6.08801C22.6327 6.08801 21.2032 4.71154 20.6738 4.18213V32.7968Z" fill="white"/>
</g>
<defs>
<clipPath id="clip0_369_325">
<rect width="28.9853" height="32.9559" fill="white"/>
</clipPath>
</defs>
</svg>
